<svg width="117" height="39" viewBox="0 0 117 39" fill="none" xmlns="http://www.w3.org/2000/svg">
<path d="M4.84033 0C4.84033 0 0 0.842679 0 5.09609C0 9.34914 0 31.113 0 31.113C0 31.113 0.537449 25.8718 4.84033 25.8718H96L86.7039 12.4749L96 0H4.84033Z" fill="#E1843E"/>
<path d="M12.71 10.0116H18.02V11.4516H14.36V12.8116H16.08C16.8467 12.8116 17.4433 12.9982 17.87 13.3716C18.3033 13.7382 18.52 14.2582 18.52 14.9316C18.52 15.6249 18.3133 16.1616 17.9 16.5416C17.4867 16.9216 16.9033 17.1116 16.15 17.1116H12.71V10.0116ZM15.96 15.7216C16.2467 15.7216 16.4633 15.6516 16.61 15.5116C16.7633 15.3649 16.84 15.1649 16.84 14.9116C16.84 14.6782 16.7667 14.4882 16.62 14.3416C16.4733 14.1882 16.2533 14.1116 15.96 14.1116H14.36V15.7216H15.96ZM25.0383 15.6716V17.1116H20.0483V10.0116H24.9483V11.4516H21.6883V12.8316H24.4883V14.1616H21.6883V15.6716H25.0383ZM26.0774 13.5016C26.0774 13.0749 26.1574 12.6516 26.3174 12.2316C26.4774 11.8049 26.7108 11.4249 27.0174 11.0916C27.3241 10.7582 27.6974 10.4882 28.1374 10.2816C28.5774 10.0749 29.0774 9.97157 29.6374 9.97157C30.3041 9.97157 30.8808 10.1149 31.3674 10.4016C31.8608 10.6882 32.2274 11.0616 32.4674 11.5216L31.2074 12.4016C31.1274 12.2149 31.0241 12.0616 30.8974 11.9416C30.7774 11.8149 30.6441 11.7149 30.4974 11.6416C30.3508 11.5616 30.2008 11.5082 30.0474 11.4816C29.8941 11.4482 29.7441 11.4316 29.5974 11.4316C29.2841 11.4316 29.0108 11.4949 28.7774 11.6216C28.5441 11.7482 28.3508 11.9116 28.1974 12.1116C28.0441 12.3116 27.9308 12.5382 27.8574 12.7916C27.7841 13.0449 27.7474 13.3016 27.7474 13.5616C27.7474 13.8416 27.7908 14.1116 27.8774 14.3716C27.9641 14.6316 28.0874 14.8616 28.2474 15.0616C28.4141 15.2616 28.6108 15.4216 28.8374 15.5416C29.0708 15.6549 29.3308 15.7116 29.6174 15.7116C29.7641 15.7116 29.9141 15.6949 30.0674 15.6616C30.2274 15.6216 30.3774 15.5649 30.5174 15.4916C30.6641 15.4116 30.7974 15.3116 30.9174 15.1916C31.0374 15.0649 31.1341 14.9116 31.2074 14.7316L32.5474 15.5216C32.4408 15.7816 32.2808 16.0149 32.0674 16.2216C31.8608 16.4282 31.6208 16.6016 31.3474 16.7416C31.0741 16.8816 30.7841 16.9882 30.4774 17.0616C30.1708 17.1349 29.8708 17.1716 29.5774 17.1716C29.0641 17.1716 28.5908 17.0682 28.1574 16.8616C27.7308 16.6482 27.3608 16.3682 27.0474 16.0216C26.7408 15.6749 26.5008 15.2816 26.3274 14.8416C26.1608 14.4016 26.0774 13.9549 26.0774 13.5016ZM34.0022 10.0116H39.9722V17.1116H38.3322V11.4516H35.6522V17.1116H34.0022V10.0116ZM44.4948 12.4716C44.4081 13.3716 44.2981 14.1249 44.1648 14.7316C44.0381 15.3316 43.8614 15.8149 43.6348 16.1816C43.4081 16.5416 43.1181 16.7982 42.7648 16.9516C42.4114 17.1049 41.9714 17.1816 41.4448 17.1816L41.3948 15.7416C41.6348 15.7149 41.8348 15.6582 41.9948 15.5716C42.1614 15.4782 42.3014 15.3049 42.4148 15.0516C42.5281 14.7916 42.6214 14.4249 42.6948 13.9516C42.7748 13.4782 42.8514 12.8449 42.9248 12.0516L43.1048 10.0116H47.7148V17.1116H46.0748V11.4516H44.5948L44.4948 12.4716ZM51.6334 10.0116H53.1134L55.7034 17.1116H54.0234L53.4734 15.5216H51.2634L50.7234 17.1116H49.0434L51.6334 10.0116ZM53.2034 14.3916L52.3734 11.8816L51.5234 14.3916H53.2034ZM61.7095 11.4516H59.5495V17.1116H57.9095V11.4516H55.7395V10.0116H61.7095V11.4516ZM69.2505 10.0116V17.1116H67.6105V14.2016H64.7805V17.1116H63.1405V10.0116H64.7805V12.7616H67.6105V10.0116H69.2505ZM74.3595 17.1716C73.8329 17.1716 73.3529 17.0682 72.9195 16.8616C72.4862 16.6549 72.1162 16.3849 71.8095 16.0516C71.5029 15.7116 71.2629 15.3249 71.0895 14.8916C70.9229 14.4582 70.8395 14.0116 70.8395 13.5516C70.8395 13.0849 70.9262 12.6349 71.0995 12.2016C71.2795 11.7682 71.5262 11.3882 71.8395 11.0616C72.1595 10.7282 72.5362 10.4649 72.9695 10.2716C73.4029 10.0716 73.8762 9.97157 74.3895 9.97157C74.9162 9.97157 75.3962 10.0749 75.8295 10.2816C76.2629 10.4882 76.6329 10.7616 76.9395 11.1016C77.2462 11.4416 77.4829 11.8282 77.6495 12.2616C77.8162 12.6949 77.8995 13.1349 77.8995 13.5816C77.8995 14.0482 77.8095 14.4982 77.6295 14.9316C77.4562 15.3649 77.2129 15.7482 76.8995 16.0816C76.5862 16.4082 76.2129 16.6716 75.7795 16.8716C75.3462 17.0716 74.8729 17.1716 74.3595 17.1716ZM72.5095 13.5716C72.5095 13.8449 72.5495 14.1116 72.6295 14.3716C72.7095 14.6249 72.8262 14.8516 72.9795 15.0516C73.1395 15.2516 73.3362 15.4116 73.5695 15.5316C73.8029 15.6516 74.0695 15.7116 74.3695 15.7116C74.6829 15.7116 74.9562 15.6482 75.1895 15.5216C75.4229 15.3949 75.6162 15.2316 75.7695 15.0316C75.9229 14.8249 76.0362 14.5949 76.1095 14.3416C76.1895 14.0816 76.2295 13.8182 76.2295 13.5516C76.2295 13.2782 76.1895 13.0149 76.1095 12.7616C76.0295 12.5016 75.9095 12.2749 75.7495 12.0816C75.5895 11.8816 75.3929 11.7249 75.1595 11.6116C74.9329 11.4916 74.6695 11.4316 74.3695 11.4316C74.0562 11.4316 73.7829 11.4949 73.5495 11.6216C73.3229 11.7416 73.1295 11.9016 72.9695 12.1016C72.8162 12.3016 72.6995 12.5316 72.6195 12.7916C72.5462 13.0449 72.5095 13.3049 72.5095 13.5716Z" fill="white"/>
</svg>
