<svg width="106" height="45" viewBox="0 0 106 45" fill="none" xmlns="http://www.w3.org/2000/svg">
<rect width="106" height="45" fill="#E5E5E5"/>
<g clip-path="url(#clip0_0_1)">
<rect width="1920" height="1648" transform="translate(-1515 -499)" fill="white"/>
<rect x="-902" y="29" width="992" height="62" fill="#337D5A" fill-opacity="0.1"/>
<rect width="106" height="45" fill="#337D5A"/>
<path d="M10.834 10.77H18.439V20H16.658V12.343H12.615V20H10.834V10.77ZM24.3571 20.13C23.8197 20.13 23.3517 20.013 22.9531 19.779C22.5544 19.5363 22.2424 19.2113 22.0171 18.804V22.769H20.2751V13.188H21.7961V14.358C22.0474 13.9593 22.3724 13.6473 22.7711 13.422C23.1697 13.188 23.6291 13.071 24.1491 13.071C24.6084 13.071 25.0331 13.1663 25.4231 13.357C25.8131 13.539 26.1467 13.7903 26.4241 14.111C26.7101 14.423 26.9311 14.7957 27.0871 15.229C27.2517 15.6537 27.3341 16.1043 27.3341 16.581C27.3341 17.075 27.2604 17.5387 27.1131 17.972C26.9657 18.4053 26.7577 18.7823 26.4891 19.103C26.2291 19.4237 25.9171 19.675 25.5531 19.857C25.1891 20.039 24.7904 20.13 24.3571 20.13ZM23.7721 18.648C24.0321 18.648 24.2704 18.5917 24.4871 18.479C24.7124 18.3663 24.9031 18.2147 25.0591 18.024C25.2151 17.8333 25.3364 17.6123 25.4231 17.361C25.5097 17.1097 25.5531 16.8497 25.5531 16.581C25.5531 16.295 25.5054 16.0307 25.4101 15.788C25.3147 15.5367 25.1804 15.32 25.0071 15.138C24.8424 14.956 24.6431 14.813 24.4091 14.709C24.1837 14.605 23.9367 14.553 23.6681 14.553C23.5034 14.553 23.3344 14.5833 23.1611 14.644C22.9877 14.696 22.8274 14.774 22.6801 14.878C22.5327 14.982 22.3984 15.1033 22.2771 15.242C22.1644 15.3807 22.0777 15.5323 22.0171 15.697V17.296C22.1731 17.686 22.4114 18.011 22.7321 18.271C23.0527 18.5223 23.3994 18.648 23.7721 18.648ZM31.647 20.13C31.0923 20.13 30.594 20.0347 30.152 19.844C29.71 19.6533 29.333 19.3977 29.021 19.077C28.7177 18.7477 28.4837 18.3707 28.319 17.946C28.1543 17.5213 28.072 17.075 28.072 16.607C28.072 16.1303 28.1543 15.6797 28.319 15.255C28.4837 14.8303 28.7177 14.4577 29.021 14.137C29.333 13.8077 29.71 13.5477 30.152 13.357C30.594 13.1663 31.0923 13.071 31.647 13.071C32.2017 13.071 32.6957 13.1663 33.129 13.357C33.571 13.5477 33.9437 13.8077 34.247 14.137C34.559 14.4577 34.7973 14.8303 34.962 15.255C35.1267 15.6797 35.209 16.1303 35.209 16.607C35.209 17.075 35.1267 17.5213 34.962 17.946C34.7973 18.3707 34.5633 18.7477 34.26 19.077C33.9567 19.3977 33.584 19.6533 33.142 19.844C32.7 20.0347 32.2017 20.13 31.647 20.13ZM29.866 16.607C29.866 16.9103 29.9093 17.1877 29.996 17.439C30.0913 17.6817 30.217 17.894 30.373 18.076C30.5377 18.258 30.7283 18.401 30.945 18.505C31.1617 18.6003 31.3957 18.648 31.647 18.648C31.8983 18.648 32.1323 18.6003 32.349 18.505C32.5657 18.401 32.752 18.258 32.908 18.076C33.0727 17.894 33.1983 17.6773 33.285 17.426C33.3803 17.1747 33.428 16.8973 33.428 16.594C33.428 16.2993 33.3803 16.0263 33.285 15.775C33.1983 15.5237 33.0727 15.307 32.908 15.125C32.752 14.943 32.5657 14.8043 32.349 14.709C32.1323 14.605 31.8983 14.553 31.647 14.553C31.3957 14.553 31.1617 14.605 30.945 14.709C30.7283 14.813 30.5377 14.956 30.373 15.138C30.217 15.32 30.0913 15.5367 29.996 15.788C29.9093 16.0393 29.866 16.3123 29.866 16.607ZM35.9558 16.594C35.9558 16.1173 36.0381 15.6667 36.2028 15.242C36.3675 14.8173 36.6058 14.4447 36.9178 14.124C37.2298 13.8033 37.6068 13.5477 38.0488 13.357C38.4908 13.1663 38.9891 13.071 39.5438 13.071C40.2891 13.071 40.9218 13.2313 41.4418 13.552C41.9705 13.8727 42.3648 14.293 42.6248 14.813L40.9218 15.333C40.7745 15.0817 40.5795 14.891 40.3368 14.761C40.0941 14.6223 39.8255 14.553 39.5308 14.553C39.2795 14.553 39.0455 14.605 38.8288 14.709C38.6121 14.8043 38.4215 14.943 38.2568 15.125C38.1008 15.2983 37.9751 15.5107 37.8798 15.762C37.7931 16.0133 37.7498 16.2907 37.7498 16.594C37.7498 16.8973 37.7975 17.1747 37.8928 17.426C37.9881 17.6773 38.1138 17.894 38.2698 18.076C38.4345 18.258 38.6251 18.401 38.8418 18.505C39.0585 18.6003 39.2881 18.648 39.5308 18.648C39.8428 18.648 40.1288 18.57 40.3888 18.414C40.6575 18.258 40.8438 18.0673 40.9478 17.842L42.6508 18.362C42.4168 18.882 42.0311 19.3067 41.4938 19.636C40.9565 19.9653 40.3108 20.13 39.5568 20.13C39.0021 20.13 38.5038 20.0347 38.0618 19.844C37.6198 19.6533 37.2428 19.3977 36.9308 19.077C36.6188 18.7477 36.3761 18.3707 36.2028 17.946C36.0381 17.5127 35.9558 17.062 35.9558 16.594ZM47.5577 16.815L49.5727 13.188H51.3537V20H49.6897V15.905L47.9607 18.973H47.1417L45.4127 15.905V20H43.7487V13.188H45.5427L47.5577 16.815ZM56.1109 20.13C55.5562 20.13 55.0579 20.0347 54.6159 19.844C54.1739 19.6533 53.7969 19.3977 53.4849 19.077C53.1815 18.7477 52.9475 18.3707 52.7829 17.946C52.6182 17.5213 52.5359 17.075 52.5359 16.607C52.5359 16.1303 52.6182 15.6797 52.7829 15.255C52.9475 14.8303 53.1815 14.4577 53.4849 14.137C53.7969 13.8077 54.1739 13.5477 54.6159 13.357C55.0579 13.1663 55.5562 13.071 56.1109 13.071C56.6655 13.071 57.1595 13.1663 57.5929 13.357C58.0349 13.5477 58.4075 13.8077 58.7109 14.137C59.0229 14.4577 59.2612 14.8303 59.4259 15.255C59.5905 15.6797 59.6729 16.1303 59.6729 16.607C59.6729 17.075 59.5905 17.5213 59.4259 17.946C59.2612 18.3707 59.0272 18.7477 58.7239 19.077C58.4205 19.3977 58.0479 19.6533 57.6059 19.844C57.1639 20.0347 56.6655 20.13 56.1109 20.13ZM54.3299 16.607C54.3299 16.9103 54.3732 17.1877 54.4599 17.439C54.5552 17.6817 54.6809 17.894 54.8369 18.076C55.0015 18.258 55.1922 18.401 55.4089 18.505C55.6255 18.6003 55.8595 18.648 56.1109 18.648C56.3622 18.648 56.5962 18.6003 56.8129 18.505C57.0295 18.401 57.2159 18.258 57.3719 18.076C57.5365 17.894 57.6622 17.6773 57.7489 17.426C57.8442 17.1747 57.8919 16.8973 57.8919 16.594C57.8919 16.2993 57.8442 16.0263 57.7489 15.775C57.6622 15.5237 57.5365 15.307 57.3719 15.125C57.2159 14.943 57.0295 14.8043 56.8129 14.709C56.5962 14.605 56.3622 14.553 56.1109 14.553C55.8595 14.553 55.6255 14.605 55.4089 14.709C55.1922 14.813 55.0015 14.956 54.8369 15.138C54.6809 15.32 54.5552 15.5367 54.4599 15.788C54.3732 16.0393 54.3299 16.3123 54.3299 16.607ZM63.8076 20H62.0786V14.696H59.9466V13.188H65.9266V14.696H63.8076V20ZM71.0504 20.13C70.5131 20.13 70.0451 20.013 69.6464 19.779C69.2477 19.5363 68.9357 19.2113 68.7104 18.804V22.769H66.9684V13.188H68.4894V14.358C68.7407 13.9593 69.0657 13.6473 69.4644 13.422C69.8631 13.188 70.3224 13.071 70.8424 13.071C71.3017 13.071 71.7264 13.1663 72.1164 13.357C72.5064 13.539 72.8401 13.7903 73.1174 14.111C73.4034 14.423 73.6244 14.7957 73.7804 15.229C73.9451 15.6537 74.0274 16.1043 74.0274 16.581C74.0274 17.075 73.9537 17.5387 73.8064 17.972C73.6591 18.4053 73.4511 18.7823 73.1824 19.103C72.9224 19.4237 72.6104 19.675 72.2464 19.857C71.8824 20.039 71.4837 20.13 71.0504 20.13ZM70.4654 18.648C70.7254 18.648 70.9637 18.5917 71.1804 18.479C71.4057 18.3663 71.5964 18.2147 71.7524 18.024C71.9084 17.8333 72.0297 17.6123 72.1164 17.361C72.2031 17.1097 72.2464 16.8497 72.2464 16.581C72.2464 16.295 72.1987 16.0307 72.1034 15.788C72.0081 15.5367 71.8737 15.32 71.7004 15.138C71.5357 14.956 71.3364 14.813 71.1024 14.709C70.8771 14.605 70.6301 14.553 70.3614 14.553C70.1967 14.553 70.0277 14.5833 69.8544 14.644C69.6811 14.696 69.5207 14.774 69.3734 14.878C69.2261 14.982 69.0917 15.1033 68.9704 15.242C68.8577 15.3807 68.7711 15.5323 68.7104 15.697V17.296C68.8664 17.686 69.1047 18.011 69.4254 18.271C69.7461 18.5223 70.0927 18.648 70.4654 18.648ZM78.3534 20.13C77.8074 20.13 77.3134 20.039 76.8714 19.857C76.4294 19.6663 76.0524 19.4107 75.7404 19.09C75.4284 18.7693 75.1857 18.3967 75.0124 17.972C74.8477 17.5473 74.7654 17.101 74.7654 16.633C74.7654 16.1477 74.8477 15.6927 75.0124 15.268C75.177 14.8347 75.4154 14.4577 75.7274 14.137C76.0394 13.8077 76.4164 13.5477 76.8584 13.357C77.309 13.1663 77.8117 13.071 78.3664 13.071C78.921 13.071 79.415 13.1663 79.8484 13.357C80.2904 13.5477 80.663 13.8033 80.9664 14.124C81.2784 14.4447 81.5124 14.8173 81.6684 15.242C81.833 15.6667 81.9154 16.1087 81.9154 16.568C81.9154 16.6807 81.911 16.789 81.9024 16.893C81.9024 16.997 81.8937 17.0837 81.8764 17.153H76.6114C76.6374 17.4217 76.7024 17.66 76.8064 17.868C76.9104 18.076 77.0447 18.2537 77.2094 18.401C77.374 18.5483 77.5604 18.661 77.7684 18.739C77.9764 18.817 78.193 18.856 78.4184 18.856C78.765 18.856 79.09 18.7737 79.3934 18.609C79.7054 18.4357 79.9177 18.2103 80.0304 17.933L81.5254 18.349C81.274 18.869 80.871 19.298 80.3164 19.636C79.7704 19.9653 79.116 20.13 78.3534 20.13ZM80.1214 16.022C80.078 15.5107 79.8874 15.1033 79.5494 14.8C79.22 14.488 78.817 14.332 78.3404 14.332C78.1064 14.332 77.8854 14.3753 77.6774 14.462C77.478 14.54 77.3004 14.6527 77.1444 14.8C76.9884 14.9473 76.8584 15.125 76.7544 15.333C76.659 15.541 76.6027 15.7707 76.5854 16.022H80.1214ZM85.9736 20H84.2446V14.696H82.1126V13.188H88.0926V14.696H85.9736V20ZM89.1344 13.188H90.8634V15.346H92.1894C92.5534 15.346 92.8914 15.398 93.2034 15.502C93.5241 15.5973 93.8014 15.7447 94.0354 15.944C94.2694 16.1347 94.4514 16.3773 94.5814 16.672C94.7201 16.958 94.7894 17.2873 94.7894 17.66C94.7894 18.0413 94.7244 18.3793 94.5944 18.674C94.4644 18.96 94.2868 19.2027 94.0614 19.402C93.8361 19.6013 93.5674 19.753 93.2554 19.857C92.9521 19.9523 92.6184 20 92.2544 20H89.1344V13.188ZM92.0594 18.635C92.3628 18.635 92.6011 18.557 92.7744 18.401C92.9478 18.2363 93.0344 17.998 93.0344 17.686C93.0344 17.374 92.9434 17.1357 92.7614 16.971C92.5794 16.7977 92.3498 16.711 92.0724 16.711H90.8634V18.635H92.0594ZM37.754 27.929C38.092 27.6343 38.4603 27.4177 38.859 27.279C39.2577 27.1403 39.665 27.071 40.081 27.071C40.3843 27.071 40.6703 27.11 40.939 27.188C41.2077 27.2573 41.4417 27.3657 41.641 27.513C41.849 27.6603 42.0093 27.8467 42.122 28.072C42.2433 28.2887 42.304 28.54 42.304 28.826C42.304 29.19 42.2043 29.5107 42.005 29.788C41.8143 30.0567 41.5413 30.2257 41.186 30.295C41.68 30.3903 42.0527 30.594 42.304 30.906C42.5553 31.2093 42.681 31.5907 42.681 32.05C42.681 32.362 42.6117 32.648 42.473 32.908C42.343 33.1593 42.161 33.376 41.927 33.558C41.693 33.74 41.4113 33.883 41.082 33.987C40.7613 34.0823 40.4103 34.13 40.029 34.13C39.5003 34.13 39.0193 34.0433 38.586 33.87C38.1527 33.6967 37.8017 33.454 37.533 33.142L38.365 32.024C38.5383 32.2407 38.7507 32.4053 39.002 32.518C39.262 32.622 39.5437 32.674 39.847 32.674C40.211 32.674 40.4927 32.6003 40.692 32.453C40.9 32.3057 41.004 32.0933 41.004 31.816C41.004 31.504 40.887 31.2657 40.653 31.101C40.4277 30.9277 40.042 30.841 39.496 30.841H38.963V29.84H39.483C39.899 29.84 40.2153 29.762 40.432 29.606C40.6573 29.4413 40.77 29.2333 40.77 28.982C40.77 28.7653 40.6877 28.6007 40.523 28.488C40.367 28.3753 40.159 28.319 39.899 28.319C39.6737 28.319 39.4353 28.371 39.184 28.475C38.9327 28.5703 38.703 28.7133 38.495 28.904L37.754 27.929ZM45.6896 34.13C45.3603 34.13 45.0526 34.078 44.7666 33.974C44.4806 33.8613 44.2336 33.7097 44.0256 33.519C43.8176 33.3197 43.6529 33.09 43.5316 32.83C43.4189 32.57 43.3626 32.284 43.3626 31.972C43.3626 31.6513 43.4319 31.3567 43.5706 31.088C43.7179 30.8107 43.9173 30.5767 44.1686 30.386C44.4286 30.1953 44.7363 30.048 45.0916 29.944C45.4469 29.8313 45.8369 29.775 46.2616 29.775C46.5649 29.775 46.8596 29.801 47.1456 29.853C47.4403 29.905 47.7003 29.9787 47.9256 30.074V29.684C47.9256 29.2333 47.7956 28.8867 47.5356 28.644C47.2843 28.4013 46.9073 28.28 46.4046 28.28C46.0406 28.28 45.6853 28.345 45.3386 28.475C44.9919 28.605 44.6366 28.7957 44.2726 29.047L43.7396 27.942C44.6149 27.3613 45.5596 27.071 46.5736 27.071C47.5529 27.071 48.3113 27.3137 48.8486 27.799C49.3946 28.2757 49.6676 28.969 49.6676 29.879V31.998C49.6676 32.18 49.6979 32.31 49.7586 32.388C49.8279 32.466 49.9363 32.5093 50.0836 32.518V34C49.7889 34.0607 49.5333 34.091 49.3166 34.091C48.9873 34.091 48.7316 34.0173 48.5496 33.87C48.3763 33.7227 48.2679 33.5277 48.2246 33.285L48.1856 32.908C47.8823 33.3067 47.5139 33.61 47.0806 33.818C46.6473 34.026 46.1836 34.13 45.6896 34.13ZM46.1836 32.856C46.4783 32.856 46.7556 32.804 47.0156 32.7C47.2843 32.596 47.4923 32.4573 47.6396 32.284C47.8303 32.1367 47.9256 31.972 47.9256 31.79V31.01C47.7176 30.932 47.4923 30.8713 47.2496 30.828C47.0069 30.776 46.7729 30.75 46.5476 30.75C46.0969 30.75 45.7286 30.854 45.4426 31.062C45.1566 31.2613 45.0136 31.517 45.0136 31.829C45.0136 32.1237 45.1263 32.3707 45.3516 32.57C45.5769 32.7607 45.8543 32.856 46.1836 32.856ZM55.5198 27.188H57.3918L54.7398 30.49L57.5998 34H55.6238L53.5178 31.374H53.0628V34H51.3468V27.188H53.0628V29.892H53.4528L55.5198 27.188ZM60.1242 34.13C59.7948 34.13 59.4872 34.078 59.2012 33.974C58.9152 33.8613 58.6682 33.7097 58.4602 33.519C58.2522 33.3197 58.0875 33.09 57.9662 32.83C57.8535 32.57 57.7972 32.284 57.7972 31.972C57.7972 31.6513 57.8665 31.3567 58.0052 31.088C58.1525 30.8107 58.3518 30.5767 58.6032 30.386C58.8632 30.1953 59.1708 30.048 59.5262 29.944C59.8815 29.8313 60.2715 29.775 60.6962 29.775C60.9995 29.775 61.2942 29.801 61.5802 29.853C61.8748 29.905 62.1348 29.9787 62.3602 30.074V29.684C62.3602 29.2333 62.2302 28.8867 61.9702 28.644C61.7188 28.4013 61.3418 28.28 60.8392 28.28C60.4752 28.28 60.1198 28.345 59.7732 28.475C59.4265 28.605 59.0712 28.7957 58.7072 29.047L58.1742 27.942C59.0495 27.3613 59.9942 27.071 61.0082 27.071C61.9875 27.071 62.7458 27.3137 63.2832 27.799C63.8292 28.2757 64.1022 28.969 64.1022 29.879V31.998C64.1022 32.18 64.1325 32.31 64.1932 32.388C64.2625 32.466 64.3708 32.5093 64.5182 32.518V34C64.2235 34.0607 63.9678 34.091 63.7512 34.091C63.4218 34.091 63.1662 34.0173 62.9842 33.87C62.8108 33.7227 62.7025 33.5277 62.6592 33.285L62.6202 32.908C62.3168 33.3067 61.9485 33.61 61.5152 33.818C61.0818 34.026 60.6182 34.13 60.1242 34.13ZM60.6182 32.856C60.9128 32.856 61.1902 32.804 61.4502 32.7C61.7188 32.596 61.9268 32.4573 62.0742 32.284C62.2648 32.1367 62.3602 31.972 62.3602 31.79V31.01C62.1522 30.932 61.9268 30.8713 61.6842 30.828C61.4415 30.776 61.2075 30.75 60.9822 30.75C60.5315 30.75 60.1632 30.854 59.8772 31.062C59.5912 31.2613 59.4482 31.517 59.4482 31.829C59.4482 32.1237 59.5608 32.3707 59.7862 32.57C60.0115 32.7607 60.2888 32.856 60.6182 32.856ZM65.4044 27.929C65.7424 27.6343 66.1107 27.4177 66.5094 27.279C66.9081 27.1403 67.3154 27.071 67.7314 27.071C68.0347 27.071 68.3207 27.11 68.5894 27.188C68.8581 27.2573 69.0921 27.3657 69.2914 27.513C69.4994 27.6603 69.6597 27.8467 69.7724 28.072C69.8937 28.2887 69.9544 28.54 69.9544 28.826C69.9544 29.19 69.8547 29.5107 69.6554 29.788C69.4647 30.0567 69.1917 30.2257 68.8364 30.295C69.3304 30.3903 69.7031 30.594 69.9544 30.906C70.2057 31.2093 70.3314 31.5907 70.3314 32.05C70.3314 32.362 70.2621 32.648 70.1234 32.908C69.9934 33.1593 69.8114 33.376 69.5774 33.558C69.3434 33.74 69.0617 33.883 68.7324 33.987C68.4117 34.0823 68.0607 34.13 67.6794 34.13C67.1507 34.13 66.6697 34.0433 66.2364 33.87C65.8031 33.6967 65.4521 33.454 65.1834 33.142L66.0154 32.024C66.1887 32.2407 66.4011 32.4053 66.6524 32.518C66.9124 32.622 67.1941 32.674 67.4974 32.674C67.8614 32.674 68.1431 32.6003 68.3424 32.453C68.5504 32.3057 68.6544 32.0933 68.6544 31.816C68.6544 31.504 68.5374 31.2657 68.3034 31.101C68.0781 30.9277 67.6924 30.841 67.1464 30.841H66.6134V29.84H67.1334C67.5494 29.84 67.8657 29.762 68.0824 29.606C68.3077 29.4413 68.4204 29.2333 68.4204 28.982C68.4204 28.7653 68.3381 28.6007 68.1734 28.488C68.0174 28.3753 67.8094 28.319 67.5494 28.319C67.3241 28.319 67.0857 28.371 66.8344 28.475C66.5831 28.5703 66.3534 28.7133 66.1454 28.904L65.4044 27.929Z" fill="white"/>
<path d="M54.5 51L65.3253 38.25H43.6747L54.5 51Z" fill="#337D5A"/>
<path d="M65.8475 0.466895C65.6331 0.760192 60.5245 7.64844 53.9999 7.64844C47.4753 7.64844 42.3665 0.760191 42.1523 0.467175C41.9492 0.188924 41.9492 -0.188467 42.1523 -0.466718C42.3665 -0.760015 47.4753 -7.64826 53.9999 -7.64826C60.5245 -7.64826 65.6331 -0.759968 65.8475 -0.466952C66.0508 -0.188748 66.0508 0.188925 65.8475 0.466895ZM53.9999 -6.06585C49.1938 -6.06585 45.0313 -1.49399 43.7991 0.000627041C45.0297 1.49655 49.1835 6.06603 53.9999 6.06603C58.8057 6.06603 62.968 1.49496 64.2007 -0.000450134C62.9701 -1.49633 58.8163 -6.06585 53.9999 -6.06585Z" fill="#8A8A8A"/>
<path d="M53.9992 4.74707C51.3816 4.74707 49.252 2.61739 49.252 -0.000205994C49.252 -2.61781 51.3816 -4.74748 53.9992 -4.74748C56.6168 -4.74748 58.7465 -2.61781 58.7465 -0.000205994C58.7465 2.61739 56.6168 4.74707 53.9992 4.74707ZM53.9992 -3.16503C52.2541 -3.16503 50.8344 -1.74532 50.8344 -0.000205994C50.8344 1.74491 52.2541 3.16461 53.9992 3.16461C55.7443 3.16461 57.164 1.74491 57.164 -0.000205994C57.164 -1.74532 55.7444 -3.16503 53.9992 -3.16503Z" fill="#8A8A8A"/>
<path d="M-28.44 2.782V4H-35.482V3.048L-31.492 -0.802C-31.0067 -1.26867 -30.68 -1.67 -30.512 -2.006C-30.344 -2.35133 -30.26 -2.69667 -30.26 -3.042C-30.26 -3.55533 -30.442 -3.952 -30.806 -4.232C-31.1607 -4.52133 -31.674 -4.666 -32.346 -4.666C-33.4287 -4.666 -34.264 -4.31133 -34.852 -3.602L-35.804 -4.428C-35.4213 -4.89467 -34.922 -5.25867 -34.306 -5.52C-33.6807 -5.78133 -32.9853 -5.912 -32.22 -5.912C-31.1933 -5.912 -30.3767 -5.66467 -29.77 -5.17C-29.1633 -4.68467 -28.86 -4.022 -28.86 -3.182C-28.86 -2.65933 -28.972 -2.16467 -29.196 -1.698C-29.42 -1.23133 -29.8447 -0.699334 -30.47 -0.102L-33.466 2.782H-28.44ZM-24.4889 -1.894C-23.0889 -1.894 -22.0623 -1.628 -21.4089 -1.096C-20.7463 -0.573334 -20.4149 0.145333 -20.4149 1.06C-20.4149 1.63867 -20.5549 2.16133 -20.8349 2.628C-21.1056 3.08533 -21.5209 3.44933 -22.0809 3.72C-22.6316 3.98133 -23.3129 4.112 -24.1249 4.112C-24.8156 4.112 -25.4829 4.00933 -26.1269 3.804C-26.7709 3.58933 -27.3029 3.29533 -27.7229 2.922L-27.0789 1.816C-26.7429 2.13333 -26.3136 2.39 -25.7909 2.586C-25.2683 2.77267 -24.7176 2.866 -24.1389 2.866C-23.4016 2.866 -22.8323 2.712 -22.4309 2.404C-22.0203 2.08667 -21.8149 1.65733 -21.8149 1.116C-21.8149 0.528 -22.0389 0.0846663 -22.4869 -0.214C-22.9349 -0.522 -23.7003 -0.676 -24.7829 -0.676H-27.0089L-26.4909 -5.8H-20.9609V-4.582H-25.3149L-25.5809 -1.894H-24.4889ZM-15.2459 4.112C-16.0205 4.112 -16.7112 3.916 -17.3179 3.524C-17.9152 3.12267 -18.3865 2.544 -18.7319 1.788C-19.0772 1.032 -19.2499 0.136 -19.2499 -0.9C-19.2499 -1.936 -19.0772 -2.832 -18.7319 -3.588C-18.3865 -4.344 -17.9152 -4.918 -17.3179 -5.31C-16.7112 -5.71133 -16.0205 -5.912 -15.2459 -5.912C-14.4805 -5.912 -13.7992 -5.71133 -13.2019 -5.31C-12.5952 -4.918 -12.1192 -4.344 -11.7739 -3.588C-11.4285 -2.832 -11.2559 -1.936 -11.2559 -0.9C-11.2559 0.136 -11.4285 1.032 -11.7739 1.788C-12.1192 2.544 -12.5952 3.12267 -13.2019 3.524C-13.7992 3.916 -14.4805 4.112 -15.2459 4.112ZM-15.2459 2.866C-14.4619 2.866 -13.8365 2.544 -13.3699 1.9C-12.8939 1.256 -12.6559 0.322666 -12.6559 -0.9C-12.6559 -2.12267 -12.8939 -3.056 -13.3699 -3.7C-13.8365 -4.344 -14.4619 -4.666 -15.2459 -4.666C-16.0392 -4.666 -16.6739 -4.344 -17.1499 -3.7C-17.6165 -3.056 -17.8499 -2.12267 -17.8499 -0.9C-17.8499 0.322666 -17.6165 1.256 -17.1499 1.9C-16.6739 2.544 -16.0392 2.866 -15.2459 2.866ZM-5.90798 4.112C-6.68265 4.112 -7.37332 3.916 -7.97998 3.524C-8.57732 3.12267 -9.04865 2.544 -9.39398 1.788C-9.73932 1.032 -9.91198 0.136 -9.91198 -0.9C-9.91198 -1.936 -9.73932 -2.832 -9.39398 -3.588C-9.04865 -4.344 -8.57732 -4.918 -7.97998 -5.31C-7.37332 -5.71133 -6.68265 -5.912 -5.90798 -5.912C-5.14265 -5.912 -4.46132 -5.71133 -3.86398 -5.31C-3.25732 -4.918 -2.78132 -4.344 -2.43598 -3.588C-2.09065 -2.832 -1.91798 -1.936 -1.91798 -0.9C-1.91798 0.136 -2.09065 1.032 -2.43598 1.788C-2.78132 2.544 -3.25732 3.12267 -3.86398 3.524C-4.46132 3.916 -5.14265 4.112 -5.90798 4.112ZM-5.90798 2.866C-5.12398 2.866 -4.49865 2.544 -4.03198 1.9C-3.55598 1.256 -3.31798 0.322666 -3.31798 -0.9C-3.31798 -2.12267 -3.55598 -3.056 -4.03198 -3.7C-4.49865 -4.344 -5.12398 -4.666 -5.90798 -4.666C-6.70132 -4.666 -7.33598 -4.344 -7.81198 -3.7C-8.27865 -3.056 -8.51198 -2.12267 -8.51198 -0.9C-8.51198 0.322666 -8.27865 1.256 -7.81198 1.9C-7.33598 2.544 -6.70132 2.866 -5.90798 2.866ZM9.27567 -2.244H5.15967V4H3.81567V-3.42H9.27567V-2.244ZM14.5856 -3.49C15.3043 -3.49 15.9483 -3.33133 16.5176 -3.014C17.0869 -2.69667 17.5303 -2.25333 17.8476 -1.684C18.1743 -1.11467 18.3376 -0.456667 18.3376 0.29C18.3376 1.03667 18.1743 1.69933 17.8476 2.278C17.5303 2.84733 17.0869 3.29067 16.5176 3.608C15.9483 3.92533 15.3043 4.084 14.5856 4.084C14.0536 4.084 13.5636 3.98133 13.1156 3.776C12.6769 3.57067 12.3036 3.272 11.9956 2.88V6.716H10.6516V-3.42H11.9396V-2.244C12.2383 -2.65467 12.6163 -2.96267 13.0736 -3.168C13.5309 -3.38267 14.0349 -3.49 14.5856 -3.49ZM14.4736 2.908C14.9496 2.908 15.3743 2.80067 15.7476 2.586C16.1303 2.362 16.4289 2.054 16.6436 1.662C16.8676 1.26067 16.9796 0.803333 16.9796 0.29C16.9796 -0.223334 16.8676 -0.676 16.6436 -1.068C16.4289 -1.46933 16.1303 -1.77733 15.7476 -1.992C15.3743 -2.20667 14.9496 -2.314 14.4736 -2.314C14.0069 -2.314 13.5823 -2.202 13.1996 -1.978C12.8263 -1.76333 12.5276 -1.46 12.3036 -1.068C12.0889 -0.676 11.9816 -0.223334 11.9816 0.29C11.9816 0.803333 12.0889 1.26067 12.3036 1.662C12.5183 2.054 12.8169 2.362 13.1996 2.586C13.5823 2.80067 14.0069 2.908 14.4736 2.908ZM20.2903 -3.42H21.6343V-0.27H25.8623V-3.42H27.2063V4H25.8623V0.892H21.6343V4H20.2903V-3.42ZM30.1136 4.084C29.8522 4.084 29.6282 3.99533 29.4416 3.818C29.2549 3.63133 29.1616 3.398 29.1616 3.118C29.1616 2.84733 29.2549 2.62333 29.4416 2.446C29.6282 2.25933 29.8522 2.166 30.1136 2.166C30.3749 2.166 30.5942 2.25467 30.7716 2.432C30.9489 2.60933 31.0376 2.838 31.0376 3.118C31.0376 3.398 30.9442 3.63133 30.7576 3.818C30.5802 3.99533 30.3656 4.084 30.1136 4.084Z" fill="#1A2F3F"/>
<line x1="-902" y1="28.5" x2="90" y2="28.5" stroke="black" stroke-opacity="0.08"/>
</g>
<defs>
<clipPath id="clip0_0_1">
<rect width="1920" height="1648" fill="white" transform="translate(-1515 -499)"/>
</clipPath>
</defs>
</svg>
